<?xml version="1.0" encoding="utf-8"?>
<!-- Generator: Adobe Illustrator 24.0.0, SVG Export Plug-In . SVG Version: 6.00 Build 0)  -->
<svg version="1.1" id="Layer_1" xmlns="http://www.w3.org/2000/svg" xmlns:xlink="http://www.w3.org/1999/xlink" x="0px" y="0px"
	 viewBox="0 0 266 75" style="enable-background:new 0 0 266 75;" xml:space="preserve">
<style type="text/css">
	.st0{fill:#FFFFFF;}
</style>
<g>
	<path class="st0" d="M51.9,9.8c3.9,4.7,6.3,10.9,6.3,17.6c0,14.7-11.3,26.7-25.1,26.7h-4.8v10.4h34.9V9.8H51.9z"/>
	<path class="st0" d="M33.1,9.9l-24.6,0v54.7h10.7V20.6h13.9c2.9,0,5.3,3.1,5.3,6.8c0,3.8-2.4,6.8-5.3,6.8h-7.8v10.7h7.8
		c8.8,0,16-7.9,16-17.5C49.1,17.7,41.9,9.9,33.1,9.9z"/>
	<g>
		<rect x="68.6" y="28" class="st0" width="6.9" height="28.6"/>
		<path class="st0" d="M72,19.1c-2.3,0-4.1,1.8-4.1,4.1c0,2.3,1.8,4.1,4.1,4.1c2.3,0,4.1-1.8,4.1-4.1C76.1,21,74.3,19.1,72,19.1z"/>
		<path class="st0" d="M92.4,50c-3.8,0-6.9-3.5-6.9-7.8s3.1-7.8,6.9-7.8c2.7,0,5.1,1.8,6.3,4.5l6.4-2.7c-2.2-5.3-7.2-8.7-12.6-8.7
			c-7.6,0-13.8,6.6-13.8,14.7c0,8.1,6.2,14.7,13.8,14.7c5.5,0,10.5-3.5,12.7-8.8l-6.4-2.6C97.5,48.2,95,50,92.4,50z"/>
		<path class="st0" d="M127.1,29.7c-2-1.2-4.3-1.9-6.7-1.9c-7.5,0-13.6,6.5-13.6,14.5c0,8,6.1,14.6,13.6,14.6c2.4,0,4.7-0.7,6.7-1.9
			v1.6h6.9c0,0,0-14.2,0-14.2s0,0,0,0V28h-6.9V29.7z M127.1,42.4c0,4.2-3,7.6-6.7,7.6c-3.7,0-6.7-3.4-6.7-7.7c0-4.2,3-7.7,6.7-7.7
			C124,34.7,127.1,38.1,127.1,42.4L127.1,42.4z"/>
		<path class="st0" d="M149.5,38.5c-1.9-0.4-4.1-0.9-4.5-1.7c-0.3-0.6,0-1.3,0.1-1.5c0.4-0.7,1.6-1.3,2.9-1.4
			c1.6-0.1,3.1,0.3,3.8,1.2c0.5,0.6,0.6,1.5,0.7,2.2l6.9-0.2c-0.1-2.5-0.9-4.7-2.3-6.4c-2.2-2.6-5.9-4-9.7-3.6
			c-3.6,0.3-6.7,2.1-8.2,4.8c-1.1,1.9-1.7,4.9-0.4,7.7c1.8,4.1,6,4.9,9.4,5.6c1.9,0.4,4.2,0.9,4.6,1.8c0.3,0.6,0,1.5-0.2,1.8
			c-0.3,0.5-1.4,1.2-3,1.3c-1.9,0.2-3.6-0.4-4.5-1.4c-0.7-0.8-0.9-2-0.9-2.9l-6.9,0.1c0,2.9,1,5.5,2.7,7.4c2.1,2.4,5.4,3.7,9,3.7
			c0.4,0,0.8,0,1.3-0.1c3.7-0.3,6.7-2,8.3-4.5c1.2-1.9,2-5.2,0.6-8.3C157,40.1,152.8,39.2,149.5,38.5z"/>
		<path class="st0" d="M204.9,29.7V28H198v28.6h6.9V41.3c0-3.5,2.9-6.4,6.4-6.4c1.1,0,2.2,0.3,3.2,0.9l3.5-5.9
			c-2-1.2-4.3-1.8-6.7-1.8C208.9,28,206.8,28.6,204.9,29.7z"/>
		<path class="st0" d="M227.6,48.1V34.8h5.5v-6.9h-5.5v-3.3h-6.9v3.3h0l0,6.9v13.3c0,4.7,3.8,8.5,8.5,8.5h4.8v-6.9h-4.8
			C228.3,49.7,227.6,49,227.6,48.1z"/>
		<path class="st0" d="M257.7,44.1c-1.9-4-6.1-4.9-9.4-5.6c-1.9-0.4-4.1-0.9-4.5-1.7c-0.3-0.6,0-1.3,0.1-1.5
			c0.4-0.7,1.6-1.3,2.9-1.4c1.6-0.1,3.1,0.3,3.8,1.2c0.5,0.6,0.6,1.5,0.7,2.2l6.9-0.2c-0.1-2.5-0.9-4.7-2.3-6.4
			c-2.2-2.6-5.9-4-9.7-3.6c-3.6,0.3-6.7,2.1-8.2,4.8c-1.1,1.9-1.7,4.9-0.4,7.7c1.8,4.1,6,4.9,9.4,5.6c1.9,0.4,4.2,0.9,4.6,1.8
			c0.3,0.6,0,1.5-0.2,1.8c-0.3,0.5-1.4,1.2-3,1.3c-1.9,0.2-3.6-0.4-4.5-1.4c-0.7-0.8-0.9-2-0.9-2.9l-6.9,0.1c0,2.9,1,5.5,2.7,7.4
			c2.1,2.4,5.4,3.7,9,3.7c0.4,0,0.8,0,1.3-0.1c3.7-0.3,6.7-2,8.3-4.5C258.4,50.6,259.2,47.2,257.7,44.1z"/>
		<polygon class="st0" points="175.7,17.5 160.8,56.5 168.1,56.5 169.8,52.2 172.4,45.3 178.4,29.9 184.3,45.3 186.5,50.8 
			177.4,50.8 175.1,56.5 188.7,56.5 191.5,56.5 196.1,56.5 181,17.5 		"/>
	</g>
</g>
</svg>
